<?xml version="1.0" encoding="utf-8"?>
<!-- Generator: Adobe Illustrator 27.5.0, SVG Export Plug-In . SVG Version: 6.00 Build 0)  -->
<svg version="1.1" id="レイヤー_1" xmlns="http://www.w3.org/2000/svg" xmlns:xlink="http://www.w3.org/1999/xlink" x="0px"
	 y="0px" viewBox="0 0 56.69 42.52" style="enable-background:new 0 0 56.69 42.52;" xml:space="preserve">
<style type="text/css">
	.st0{stroke:#000000;stroke-miterlimit:10;}
	.st1{fill:#FFFFFF;}
	.st2{fill:#FFFFFF;stroke:#000000;stroke-miterlimit:10;}
</style>
<ellipse class="st0" cx="28.08" cy="19.12" rx="12.09" ry="11.9"/>
<g>
	<line x1="22.91" y1="3.44" x2="33.35" y2="34.1"/>
	<path d="M24.41,2.93c0.09,5.6,2.34,10.55,3.91,15.77c0.87,2.55,1.78,5.09,2.71,7.63c0.88,2.25,1.76,5.5,3.3,7.43
		c0,0-1.96,0.67-1.96,0.67c0.04-2.45-1.25-5.58-1.92-7.9c-1.62-5.15-3.32-10.27-5.28-15.31c-0.93-2.53-1.99-5.02-3.76-7.27
		C21.42,3.95,24.41,2.93,24.41,2.93L24.41,2.93z"/>
</g>
<g>
	<line x1="28.25" y1="4.49" x2="28.08" y2="34.1"/>
	<path d="M29.17,4.5c-0.92,4.91-0.65,9.85-0.77,14.8c0.16,4.95-0.33,9.9,0.69,14.81c0,0-2.01-0.01-2.01-0.01
		c0.68-2.46,0.61-4.93,0.71-7.4c0.17-4.93,0.2-9.87,0.12-14.8c-0.02-2.47-0.1-4.94-0.57-7.41L29.17,4.5L29.17,4.5z"/>
</g>
<g>
	<line x1="15.99" y1="8.17" x2="38.58" y2="28.32"/>
	<path d="M17,7.04c2.4,4.69,6.83,7.44,10.44,11.03c3.75,3.38,7.55,6.69,11.47,9.88c0,0-0.67,0.75-0.67,0.75
		c-3.61-3.53-7.34-6.93-11.12-10.27c-3.98-3.18-7.21-7.27-12.14-9.12C14.98,9.31,17,7.04,17,7.04L17,7.04z"/>
</g>
<g>
	<line x1="35.37" y1="5.54" x2="20.42" y2="33.22"/>
	<path d="M36.32,6.05c-3.2,2.55-4.44,6.61-6.29,10.01c-2.83,5.9-5.64,11.93-7.96,18.05c0,0-3.3-1.78-3.3-1.78
		c3.85-5.29,7.35-10.95,10.73-16.55c1.84-3.41,4.54-6.67,4.93-10.75C34.43,5.03,36.32,6.05,36.32,6.05L36.32,6.05z"/>
</g>
<g>
	<line x1="14.55" y1="12.9" x2="42.67" y2="25.64"/>
	<path d="M14.98,11.94c1.77,2.33,4.28,3.02,6.61,4.12c7.07,3.13,14.19,6.1,21.52,8.6c0,0-0.89,1.95-0.89,1.95
		c-6.71-3.87-13.64-7.25-20.66-10.51c-2.36-1.02-4.54-2.46-7.46-2.25C14.11,13.86,14.98,11.94,14.98,11.94L14.98,11.94z"/>
</g>
<g>
	<line x1="38.58" y1="9.75" x2="17.57" y2="29.19"/>
	<path d="M38.92,10.11c-5.28,4.43-10.97,9.55-16.07,14.24c-1.63,1.62-4.14,3.13-4.39,5.79c0,0-1.75-1.89-1.75-1.89
		c2.67-0.05,4.37-2.43,6.11-3.94c0,0,5.22-4.9,5.22-4.9c3.43-3.31,6.87-6.62,10.21-10.03L38.92,10.11L38.92,10.11z"/>
</g>
<g>
	<line x1="16.86" y1="26.04" x2="41.99" y2="10.18"/>
	<path d="M16.59,25.62c6.17-3.62,12.86-7.9,18.88-11.83c2.03-1.43,4.29-2.47,5.87-4.61c0,0,1.27,2.02,1.27,2.02
		c-2.61,0.51-4.53,2.11-6.69,3.32c-6.15,3.75-12.88,7.93-18.81,11.96C17.13,26.46,16.59,25.62,16.59,25.62L16.59,25.62z"/>
</g>
<g>
	<line x1="12.06" y1="17.11" x2="45.7" y2="20.96"/>
	<path d="M12.19,15.96c2.7,1.26,5.52,1.41,8.32,1.78c2.8,0.37,5.61,0.65,8.41,0.94c4.99,0.31,11.96,1.4,16.91,1.15
		c0,0-0.26,2.27-0.26,2.27c-2.74-0.87-5.55-1.1-8.35-1.53c-4.95-0.7-11.89-1.69-16.79-2.16c-2.81-0.28-5.59-0.76-8.5-0.15
		L12.19,15.96L12.19,15.96z"/>
</g>
<g>
	<line class="st1" x1="42.67" y1="15.53" x2="12.06" y2="22.71"/>
	<path d="M42.87,16.38c-1.45-0.46-2.68,0.04-3.97,0.28c-3.73,0.82-7.81,1.73-11.49,2.65c-1.9,0.46-5.72,1.46-7.61,1.98
		c-2.53,0.68-5.08,1.27-7.42,2.78l-0.64-2.74c3.96,0.4,7.93-0.94,11.74-1.58c4.99-1.05,10.37-2.33,15.31-3.57
		c1.26-0.35,2.59-0.45,3.68-1.51C42.47,14.68,42.87,16.38,42.87,16.38L42.87,16.38z"/>
</g>
<ellipse class="st2" cx="30.29" cy="17.06" rx="4.44" ry="4.98"/>
<ellipse class="st2" cx="20.87" cy="21.05" rx="1.69" ry="1.66"/>
<ellipse class="st2" cx="25.26" cy="26.78" rx="2.7" ry="2.66"/>
<ellipse class="st2" cx="35.57" cy="23.45" rx="2.7" ry="2.66"/>
<g>
	<path d="M18.54,39.33c0,0.13-0.03,0.28-0.1,0.43c-0.07,0.16-0.17,0.31-0.32,0.46c-0.15,0.15-0.33,0.27-0.56,0.37
		c-0.23,0.09-0.49,0.14-0.79,0.14c-0.23,0-0.43-0.02-0.62-0.06s-0.36-0.11-0.51-0.2c-0.15-0.09-0.29-0.21-0.42-0.35
		c-0.11-0.13-0.21-0.28-0.29-0.44c-0.08-0.16-0.14-0.34-0.18-0.52c-0.04-0.19-0.06-0.38-0.06-0.59c0-0.34,0.05-0.64,0.15-0.91
		s0.25-0.5,0.43-0.69c0.19-0.19,0.41-0.33,0.66-0.43c0.25-0.1,0.52-0.15,0.81-0.15c0.35,0,0.66,0.07,0.93,0.2
		c0.27,0.14,0.48,0.3,0.63,0.5c0.15,0.2,0.22,0.39,0.22,0.57c0,0.1-0.04,0.18-0.11,0.26c-0.07,0.08-0.16,0.11-0.26,0.11
		c-0.11,0-0.2-0.03-0.25-0.08c-0.06-0.05-0.12-0.14-0.19-0.27c-0.11-0.21-0.25-0.36-0.4-0.47s-0.34-0.15-0.57-0.15
		c-0.36,0-0.65,0.13-0.86,0.4s-0.32,0.64-0.32,1.13c0,0.33,0.05,0.6,0.14,0.82s0.23,0.38,0.4,0.49c0.17,0.11,0.37,0.16,0.61,0.16
		c0.25,0,0.46-0.06,0.64-0.18c0.17-0.12,0.3-0.3,0.39-0.53c0.04-0.11,0.08-0.2,0.14-0.27c0.06-0.07,0.14-0.11,0.27-0.11
		c0.1,0,0.19,0.04,0.27,0.11C18.5,39.14,18.54,39.22,18.54,39.33z"/>
	<path d="M21.22,36.38c0.45,0,0.83,0.09,1.15,0.26s0.56,0.43,0.73,0.75c0.16,0.33,0.25,0.71,0.25,1.15c0,0.32-0.05,0.62-0.14,0.89
		c-0.09,0.27-0.23,0.5-0.41,0.69s-0.4,0.34-0.67,0.45c-0.26,0.1-0.56,0.15-0.9,0.15c-0.34,0-0.64-0.05-0.91-0.16
		c-0.27-0.11-0.49-0.25-0.67-0.45c-0.18-0.19-0.31-0.42-0.4-0.7s-0.14-0.56-0.14-0.88c0-0.32,0.05-0.62,0.14-0.89
		s0.23-0.5,0.41-0.69c0.18-0.19,0.4-0.33,0.66-0.43C20.6,36.43,20.89,36.38,21.22,36.38z M22.47,38.54c0-0.31-0.05-0.57-0.15-0.8
		s-0.25-0.4-0.44-0.51c-0.19-0.12-0.41-0.17-0.65-0.17c-0.17,0-0.34,0.03-0.48,0.1s-0.28,0.16-0.38,0.28s-0.19,0.28-0.25,0.47
		s-0.09,0.4-0.09,0.64c0,0.24,0.03,0.46,0.09,0.65c0.06,0.19,0.15,0.35,0.26,0.48s0.24,0.22,0.39,0.29
		c0.15,0.06,0.31,0.09,0.48,0.09c0.22,0,0.43-0.05,0.62-0.16c0.19-0.11,0.34-0.28,0.45-0.5S22.47,38.88,22.47,38.54z"/>
	<path d="M24.74,36.94l0.98,2.82l0.98-2.84c0.05-0.15,0.09-0.25,0.11-0.31c0.03-0.06,0.07-0.11,0.13-0.16
		c0.06-0.05,0.14-0.07,0.24-0.07c0.07,0,0.14,0.02,0.21,0.05c0.06,0.04,0.11,0.08,0.15,0.14c0.04,0.06,0.05,0.12,0.05,0.18
		c0,0.04-0.01,0.09-0.02,0.14s-0.03,0.1-0.04,0.14c-0.02,0.05-0.04,0.1-0.05,0.15l-1.04,2.75c-0.04,0.11-0.07,0.21-0.11,0.3
		c-0.04,0.09-0.08,0.18-0.13,0.25c-0.05,0.07-0.11,0.13-0.2,0.18c-0.08,0.05-0.18,0.07-0.3,0.07s-0.22-0.02-0.3-0.07
		s-0.15-0.1-0.2-0.18c-0.05-0.07-0.09-0.16-0.13-0.25c-0.04-0.09-0.07-0.19-0.11-0.3l-1.03-2.72c-0.02-0.05-0.04-0.1-0.05-0.15
		c-0.02-0.05-0.03-0.1-0.05-0.15s-0.02-0.1-0.02-0.14c0-0.1,0.04-0.19,0.12-0.27s0.18-0.12,0.3-0.12c0.15,0,0.25,0.04,0.32,0.13
		C24.61,36.6,24.67,36.75,24.74,36.94z"/>
	<path d="M28.28,40.21V36.9c0-0.17,0.04-0.3,0.12-0.39s0.18-0.13,0.31-0.13c0.13,0,0.24,0.04,0.32,0.13
		c0.08,0.08,0.12,0.21,0.12,0.39v3.31c0,0.17-0.04,0.3-0.12,0.39c-0.08,0.09-0.19,0.13-0.32,0.13c-0.12,0-0.23-0.04-0.31-0.13
		C28.32,40.51,28.28,40.38,28.28,40.21z"/>
	<path d="M30.68,36.45h1.14c0.3,0,0.55,0.03,0.76,0.08c0.21,0.05,0.4,0.15,0.58,0.3c0.45,0.37,0.67,0.94,0.67,1.71
		c0,0.25-0.02,0.48-0.07,0.69c-0.05,0.21-0.12,0.4-0.21,0.56c-0.09,0.17-0.21,0.32-0.36,0.45c-0.12,0.1-0.24,0.18-0.38,0.24
		c-0.14,0.06-0.29,0.1-0.44,0.13c-0.16,0.02-0.34,0.04-0.53,0.04h-1.14c-0.16,0-0.28-0.02-0.36-0.07c-0.08-0.05-0.13-0.11-0.16-0.2
		s-0.04-0.2-0.04-0.33v-3.08c0-0.18,0.04-0.32,0.13-0.4C30.35,36.5,30.49,36.45,30.68,36.45z M31.01,37.13v2.85h0.66
		c0.14,0,0.26,0,0.34-0.01c0.08-0.01,0.17-0.03,0.26-0.06c0.09-0.03,0.17-0.07,0.23-0.13c0.29-0.24,0.44-0.66,0.44-1.24
		c0-0.42-0.06-0.72-0.19-0.93c-0.13-0.21-0.29-0.34-0.48-0.39c-0.19-0.06-0.42-0.08-0.68-0.08H31.01z"/>
	<path d="M35.6,39.48h-0.93c-0.14,0-0.25-0.03-0.32-0.1c-0.07-0.06-0.11-0.15-0.11-0.25c0-0.1,0.04-0.19,0.11-0.25
		c0.07-0.06,0.18-0.1,0.33-0.1h0.93c0.15,0,0.25,0.03,0.33,0.1c0.07,0.06,0.11,0.15,0.11,0.25c0,0.1-0.04,0.18-0.11,0.25
		C35.85,39.44,35.74,39.48,35.6,39.48z"/>
	<path d="M37.83,40.26v-2.61c-0.5,0.37-0.83,0.56-1.01,0.56c-0.08,0-0.16-0.03-0.22-0.1c-0.06-0.06-0.1-0.14-0.1-0.22
		c0-0.1,0.03-0.17,0.09-0.21c0.06-0.05,0.17-0.11,0.33-0.18c0.24-0.11,0.43-0.22,0.57-0.34c0.14-0.12,0.27-0.25,0.38-0.4
		c0.11-0.15,0.18-0.24,0.21-0.28c0.03-0.03,0.1-0.05,0.19-0.05c0.1,0,0.19,0.04,0.25,0.12c0.06,0.08,0.09,0.19,0.09,0.32v3.28
		c0,0.38-0.13,0.58-0.4,0.58c-0.12,0-0.22-0.04-0.29-0.12C37.87,40.53,37.83,40.42,37.83,40.26z"/>
	<path d="M42.17,38.77c-0.13,0.15-0.27,0.26-0.43,0.34c-0.16,0.08-0.34,0.11-0.53,0.11c-0.18,0-0.36-0.04-0.52-0.11
		c-0.16-0.07-0.3-0.17-0.42-0.29c-0.12-0.12-0.21-0.27-0.27-0.44c-0.06-0.17-0.09-0.34-0.09-0.53c0-0.2,0.04-0.38,0.11-0.56
		c0.07-0.18,0.17-0.33,0.3-0.46c0.13-0.13,0.29-0.23,0.47-0.3c0.18-0.07,0.38-0.11,0.6-0.11c0.25,0,0.48,0.04,0.68,0.13
		s0.37,0.22,0.5,0.39c0.13,0.17,0.24,0.39,0.31,0.65s0.11,0.55,0.11,0.88c0,0.37-0.04,0.69-0.12,0.97
		c-0.08,0.28-0.19,0.51-0.33,0.71c-0.15,0.19-0.32,0.33-0.53,0.42s-0.44,0.14-0.69,0.14c-0.26,0-0.48-0.05-0.67-0.14
		c-0.19-0.09-0.33-0.21-0.43-0.35c-0.1-0.14-0.15-0.28-0.15-0.41c0-0.08,0.03-0.15,0.09-0.21c0.06-0.06,0.14-0.09,0.23-0.09
		c0.09,0,0.16,0.02,0.23,0.07c0.07,0.05,0.12,0.12,0.16,0.21C40.83,39.91,40.9,40,41,40.07c0.1,0.07,0.21,0.1,0.34,0.1
		c0.11,0,0.22-0.03,0.32-0.08c0.1-0.06,0.19-0.13,0.26-0.24C42.06,39.65,42.14,39.29,42.17,38.77z M42.1,37.9
		c0-0.13-0.02-0.25-0.05-0.36c-0.04-0.11-0.09-0.21-0.15-0.29s-0.14-0.14-0.24-0.19c-0.09-0.05-0.19-0.07-0.3-0.07
		c-0.19,0-0.34,0.08-0.47,0.23c-0.13,0.16-0.19,0.36-0.19,0.62c0,0.25,0.06,0.46,0.19,0.61c0.13,0.15,0.29,0.23,0.49,0.23
		c0.12,0,0.24-0.03,0.35-0.09c0.11-0.06,0.2-0.15,0.27-0.27C42.07,38.2,42.1,38.06,42.1,37.9z"/>
</g>
</svg>
