<?xml version="1.0" encoding="utf-8"?>
<!-- Generator: Adobe Illustrator 27.5.0, SVG Export Plug-In . SVG Version: 6.00 Build 0)  -->
<svg version="1.1" id="レイヤー_1" xmlns="http://www.w3.org/2000/svg" xmlns:xlink="http://www.w3.org/1999/xlink" x="0px"
	 y="0px" viewBox="0 0 56.69 42.52" style="enable-background:new 0 0 56.69 42.52;" xml:space="preserve">
<style type="text/css">
	.st0{fill:#FFFFFF;stroke:#000000;stroke-width:2;stroke-miterlimit:10;}
	.st1{fill:none;stroke:#C01A20;stroke-width:0.5;stroke-miterlimit:10;}
</style>
<path class="st0" d="M9.28,7.69v29.24c0,0.94,1.1,1.7,2.45,1.7h34.89V9.48h-5.95"/>
<path class="st0" d="M11.66,4.63h29.01v4.9H11.36c-1.15,0-2.08-1.02-2.08-2.28v0C9.28,5.8,10.35,4.63,11.66,4.63z"/>
<rect x="73.66" y="32.87" class="st1" width="50.69" height="39.31"/>
<g>
	<path d="M16.6,20.71l2.51,3.8v-3.83c0-0.25,0.05-0.44,0.16-0.56s0.25-0.19,0.43-0.19c0.19,0,0.34,0.06,0.44,0.19
		s0.16,0.31,0.16,0.56v5.07c0,0.56-0.23,0.85-0.7,0.85c-0.12,0-0.22-0.02-0.32-0.05s-0.18-0.09-0.26-0.16s-0.16-0.16-0.23-0.26
		c-0.07-0.1-0.14-0.2-0.21-0.3l-2.45-3.75v3.77c0,0.25-0.06,0.43-0.17,0.56c-0.11,0.13-0.26,0.19-0.44,0.19
		c-0.18,0-0.33-0.06-0.44-0.19s-0.17-0.31-0.17-0.56v-4.97c0-0.21,0.02-0.38,0.07-0.5c0.06-0.13,0.15-0.24,0.28-0.32
		c0.13-0.08,0.27-0.13,0.42-0.13c0.12,0,0.22,0.02,0.3,0.06c0.08,0.04,0.16,0.09,0.22,0.15s0.13,0.15,0.19,0.25
		C16.47,20.49,16.53,20.6,16.6,20.71z"/>
	<path d="M25.99,21.05h-2.94v1.58h2.71c0.2,0,0.35,0.04,0.45,0.13c0.1,0.09,0.15,0.21,0.15,0.35s-0.05,0.27-0.15,0.36
		c-0.1,0.09-0.25,0.14-0.45,0.14h-2.71v1.83h3.04c0.21,0,0.36,0.05,0.46,0.14s0.16,0.22,0.16,0.38c0,0.15-0.05,0.28-0.16,0.37
		c-0.1,0.09-0.26,0.14-0.46,0.14h-3.55c-0.28,0-0.49-0.06-0.61-0.19s-0.19-0.33-0.19-0.61v-4.84c0-0.19,0.03-0.34,0.08-0.46
		c0.06-0.12,0.14-0.21,0.26-0.26c0.12-0.05,0.27-0.08,0.46-0.08h3.45c0.21,0,0.36,0.05,0.46,0.14c0.1,0.09,0.15,0.21,0.15,0.36
		c0,0.15-0.05,0.27-0.15,0.37C26.35,21,26.19,21.05,25.99,21.05z"/>
	<path d="M32.31,25.47l-1.04-3.86l-1.05,3.86c-0.08,0.29-0.15,0.5-0.2,0.63c-0.05,0.13-0.13,0.24-0.25,0.34
		c-0.12,0.1-0.28,0.15-0.48,0.15c-0.16,0-0.29-0.03-0.4-0.09c-0.1-0.06-0.19-0.14-0.25-0.26c-0.06-0.11-0.12-0.24-0.16-0.39
		c-0.04-0.15-0.08-0.29-0.11-0.42l-1.07-4.34c-0.06-0.25-0.1-0.44-0.1-0.58c0-0.17,0.06-0.31,0.18-0.42
		c0.12-0.11,0.26-0.17,0.43-0.17c0.24,0,0.4,0.08,0.48,0.23c0.08,0.15,0.15,0.37,0.21,0.66l0.84,3.76l0.95-3.52
		c0.07-0.27,0.13-0.47,0.19-0.62s0.15-0.26,0.27-0.36s0.3-0.15,0.51-0.15c0.22,0,0.39,0.05,0.51,0.16c0.12,0.11,0.21,0.22,0.25,0.35
		c0.05,0.13,0.11,0.33,0.19,0.62l0.95,3.52l0.84-3.76c0.04-0.2,0.08-0.35,0.12-0.46c0.04-0.11,0.1-0.21,0.19-0.3
		c0.09-0.09,0.22-0.13,0.39-0.13s0.31,0.06,0.43,0.17c0.12,0.11,0.18,0.25,0.18,0.42c0,0.12-0.03,0.31-0.1,0.58l-1.07,4.34
		c-0.07,0.29-0.13,0.51-0.18,0.64c-0.05,0.14-0.13,0.26-0.25,0.36c-0.12,0.1-0.28,0.15-0.49,0.15c-0.2,0-0.36-0.05-0.48-0.15
		s-0.2-0.21-0.25-0.34C32.46,25.98,32.39,25.77,32.31,25.47z"/>
	<path d="M41.08,24.55c0,0.39-0.1,0.74-0.3,1.05c-0.2,0.31-0.5,0.55-0.88,0.73s-0.84,0.26-1.38,0.26c-0.64,0-1.16-0.12-1.57-0.36
		c-0.29-0.17-0.53-0.4-0.71-0.69c-0.18-0.29-0.28-0.57-0.28-0.84c0-0.16,0.06-0.29,0.17-0.41c0.11-0.11,0.25-0.17,0.42-0.17
		c0.14,0,0.25,0.04,0.35,0.13c0.09,0.09,0.18,0.22,0.24,0.39c0.08,0.21,0.17,0.38,0.27,0.51c0.09,0.14,0.23,0.25,0.4,0.34
		s0.4,0.13,0.68,0.13c0.39,0,0.7-0.09,0.94-0.27c0.24-0.18,0.36-0.4,0.36-0.67c0-0.21-0.06-0.39-0.2-0.52
		c-0.13-0.13-0.3-0.23-0.5-0.3c-0.21-0.07-0.48-0.15-0.83-0.22c-0.46-0.11-0.85-0.23-1.16-0.38c-0.31-0.14-0.56-0.34-0.74-0.59
		c-0.18-0.25-0.28-0.56-0.28-0.93c0-0.35,0.1-0.67,0.29-0.94s0.47-0.49,0.84-0.63s0.8-0.22,1.29-0.22c0.4,0,0.74,0.05,1.03,0.15
		c0.29,0.1,0.53,0.23,0.72,0.39c0.19,0.16,0.33,0.33,0.42,0.51s0.13,0.35,0.13,0.52c0,0.16-0.05,0.3-0.17,0.42
		c-0.11,0.12-0.25,0.19-0.41,0.19c-0.15,0-0.26-0.04-0.34-0.11c-0.08-0.08-0.16-0.2-0.25-0.37c-0.12-0.24-0.26-0.43-0.42-0.57
		c-0.16-0.14-0.43-0.2-0.79-0.2c-0.34,0-0.61,0.07-0.82,0.22c-0.21,0.15-0.31,0.33-0.31,0.53c0,0.13,0.04,0.24,0.11,0.33
		c0.07,0.09,0.17,0.17,0.29,0.24s0.25,0.12,0.37,0.16c0.12,0.04,0.33,0.09,0.62,0.17c0.36,0.08,0.69,0.18,0.99,0.28
		c0.29,0.1,0.54,0.23,0.75,0.37c0.21,0.15,0.37,0.33,0.48,0.56C41.02,23.95,41.08,24.22,41.08,24.55z"/>
</g>
</svg>
