<?xml version="1.0" encoding="utf-8"?>
<!-- Generator: Adobe Illustrator 27.8.1, SVG Export Plug-In . SVG Version: 6.00 Build 0)  -->
<svg version="1.1" id="レイヤー_1" xmlns="http://www.w3.org/2000/svg" xmlns:xlink="http://www.w3.org/1999/xlink" x="0px"
	 y="0px" viewBox="0 0 56.7 42.5" style="enable-background:new 0 0 56.7 42.5;" xml:space="preserve">
<style type="text/css">
	.st0{stroke:#000000;stroke-miterlimit:10;}
	.st1{fill:none;}
	.st2{fill:#FFFFFF;stroke:#000000;stroke-miterlimit:10;}
	.st3{fill:#514F4E;}
	.st4{fill:#FFFFFF;}
</style>
<ellipse class="st0" cx="19.5" cy="18.6" rx="12.9" ry="13"/>
<g>
	<line class="st1" x1="13.9" y1="1.4" x2="25.1" y2="35"/>
	<path d="M15.5,0.9C15.6,7,18,12.4,19.7,18.1c0.9,2.8,1.9,5.6,2.9,8.4c0.9,2.5,1.9,6,3.5,8.1L24,35.4c0-2.7-1.3-6.1-2.1-8.7
		c-1.7-5.6-3.5-11.3-5.6-16.8c-1-2.8-2.1-5.5-4-8C12.3,2,15.5,0.9,15.5,0.9L15.5,0.9z"/>
</g>
<g>
	<line class="st1" x1="19.6" y1="2.6" x2="19.5" y2="35"/>
	<path d="M20.6,2.6c-1,5.4-0.7,10.8-0.8,16.2c0.2,5.4-0.4,10.8,0.7,16.2l-2.1,0c0.7-2.7,0.7-5.4,0.8-8.1c0.2-5.4,0.2-10.8,0.1-16.2
		c0-2.7-0.1-5.4-0.6-8.1L20.6,2.6L20.6,2.6z"/>
</g>
<g>
	<line class="st1" x1="6.5" y1="6.6" x2="30.7" y2="28.7"/>
	<path d="M7.6,5.4c2.6,5.1,7.3,8.2,11.2,12.1c4,3.7,8.1,7.3,12.3,10.8l-0.7,0.8c-3.9-3.9-7.8-7.6-11.9-11.3c-4.3-3.5-7.7-8-13-10
		C5.5,7.9,7.6,5.4,7.6,5.4L7.6,5.4z"/>
</g>
<g>
	<line class="st1" x1="27.3" y1="3.7" x2="11.3" y2="34.1"/>
	<path d="M28.3,4.3c-3.4,2.8-4.7,7.2-6.7,11c-3,6.5-6,13.1-8.5,19.8l-3.5-1.9c4.1-5.8,7.9-12,11.5-18.1c2-3.7,4.9-7.3,5.3-11.8
		C26.3,3.2,28.3,4.3,28.3,4.3L28.3,4.3z"/>
</g>
<g>
	<line class="st1" x1="5" y1="11.8" x2="35.1" y2="25.7"/>
	<path d="M5.5,10.7c1.9,2.6,4.6,3.3,7.1,4.5c7.6,3.4,15.2,6.7,23,9.4l-1,2.1c-7.2-4.2-14.6-7.9-22.1-11.5c-2.5-1.1-4.9-2.7-8-2.5
		C4.5,12.8,5.5,10.7,5.5,10.7L5.5,10.7z"/>
</g>
<g>
	<line class="st1" x1="30.7" y1="8.3" x2="8.2" y2="29.6"/>
	<path d="M31.1,8.7c-5.6,4.9-11.7,10.5-17.2,15.6c-1.7,1.8-4.4,3.4-4.7,6.3l-1.9-2.1c2.9-0.1,4.7-2.7,6.5-4.3l5.6-5.4
		c3.7-3.6,7.3-7.3,10.9-11L31.1,8.7L31.1,8.7z"/>
</g>
<g>
	<line class="st1" x1="7.5" y1="26.2" x2="34.3" y2="8.8"/>
	<path d="M7.2,25.7c6.6-4,13.7-8.7,20.2-13c2.2-1.6,4.6-2.7,6.3-5.1L35,9.9c-2.8,0.6-4.8,2.3-7.2,3.6c-6.6,4.1-13.8,8.7-20.1,13.1
		C7.8,26.6,7.2,25.7,7.2,25.7L7.2,25.7z"/>
</g>
<g>
	<line class="st1" x1="2.3" y1="16.4" x2="38.3" y2="20.6"/>
	<path d="M2.5,15.1c2.9,1.4,5.9,1.5,8.9,1.9c3,0.4,6,0.7,9,1c5.3,0.3,12.8,1.5,18.1,1.3l-0.3,2.5c-2.9-1-5.9-1.2-8.9-1.7
		c-5.3-0.8-12.7-1.9-18-2.4c-3-0.3-6-0.8-9.1-0.2L2.5,15.1L2.5,15.1z"/>
</g>
<g>
	<line class="st1" x1="35.1" y1="14.7" x2="2.3" y2="22.5"/>
	<path d="M35.3,15.6c-1.6-0.5-2.9,0-4.2,0.3c-4,0.9-8.4,1.9-12.3,2.9c-2,0.5-6.1,1.6-8.1,2.2c-2.7,0.7-5.4,1.4-7.9,3L2,21
		c4.2,0.4,8.5-1,12.6-1.7c5.3-1.2,11.1-2.6,16.4-3.9c1.3-0.4,2.8-0.5,3.9-1.7C34.8,13.7,35.3,15.6,35.3,15.6L35.3,15.6z"/>
</g>
<ellipse class="st2" cx="21.8" cy="16.3" rx="4.7" ry="5.5"/>
<ellipse class="st2" cx="11.8" cy="20.7" rx="1.8" ry="1.8"/>
<ellipse class="st2" cx="16.4" cy="27" rx="2.9" ry="2.9"/>
<ellipse class="st2" cx="27.5" cy="23.3" rx="2.9" ry="2.9"/>
<ellipse class="st3" cx="43.9" cy="32.5" rx="7.1" ry="6.9"/>
<g>
	<line class="st3" x1="40.9" y1="23.4" x2="47" y2="41.2"/>
	<path class="st3" d="M41.8,23.1c0.1,3.3,1.4,6.1,2.3,9.2c0.5,1.5,1,3,1.6,4.4c0.5,1.3,1,3.2,1.9,4.3l-1.2,0.4
		c0-1.4-0.7-3.2-1.1-4.6c-1-3-2-6-3.1-8.9C41.7,26.4,41,25,40,23.7C40,23.7,41.8,23.1,41.8,23.1L41.8,23.1z"/>
</g>
<g>
	<line class="st3" x1="44" y1="24" x2="43.9" y2="41.2"/>
	<path class="st3" d="M44.6,24c-0.5,2.9-0.4,5.7-0.5,8.6c0.1,2.9-0.2,5.8,0.4,8.6l-1.2,0c0.4-1.4,0.4-2.9,0.4-4.3
		c0.1-2.9,0.1-5.7,0.1-8.6c0-1.4-0.1-2.9-0.3-4.3L44.6,24L44.6,24z"/>
</g>
<g>
	<line class="st3" x1="36.8" y1="26.1" x2="50.1" y2="37.8"/>
	<path class="st3" d="M37.4,25.5c1.4,2.7,4,4.3,6.1,6.4c2.2,2,4.4,3.9,6.7,5.7l-0.4,0.4c-2.1-2.1-4.3-4-6.5-6
		c-2.3-1.8-4.2-4.2-7.1-5.3C36.2,26.8,37.4,25.5,37.4,25.5L37.4,25.5z"/>
</g>
<g>
	<line class="st3" x1="48.2" y1="24.6" x2="39.4" y2="40.7"/>
	<path class="st3" d="M48.8,24.9c-1.9,1.5-2.6,3.8-3.7,5.8c-1.7,3.4-3.3,6.9-4.7,10.5l-1.9-1c2.3-3.1,4.3-6.4,6.3-9.6
		c1.1-2,2.7-3.9,2.9-6.2C47.6,24.3,48.8,24.9,48.8,24.9L48.8,24.9z"/>
</g>
<g>
	<line class="st3" x1="36" y1="28.9" x2="52.5" y2="36.3"/>
	<path class="st3" d="M36.2,28.3c1,1.4,2.5,1.8,3.9,2.4c4.2,1.8,8.3,3.5,12.7,5l-0.5,1.1c-3.9-2.2-8-4.2-12.1-6.1
		c-1.4-0.6-2.7-1.4-4.4-1.3C35.7,29.4,36.2,28.3,36.2,28.3L36.2,28.3z"/>
</g>
<g>
	<line class="st3" x1="50.1" y1="27.1" x2="37.7" y2="38.4"/>
	<path class="st3" d="M50.3,27.3c-3.1,2.6-6.5,5.5-9.4,8.3c-1,0.9-2.4,1.8-2.6,3.4l-1-1.1c1.6,0,2.6-1.4,3.6-2.3l3.1-2.8
		c2-1.9,4-3.8,6-5.8L50.3,27.3L50.3,27.3z"/>
</g>
<g>
	<line class="st3" x1="37.3" y1="36.5" x2="52.1" y2="27.3"/>
	<path class="st3" d="M37.2,36.3c3.6-2.1,7.6-4.6,11.1-6.9c1.2-0.8,2.5-1.4,3.5-2.7l0.7,1.2c-1.5,0.3-2.7,1.2-3.9,1.9
		c-3.6,2.2-7.6,4.6-11.1,6.9C37.5,36.8,37.2,36.3,37.2,36.3L37.2,36.3z"/>
</g>
<g>
	<line class="st3" x1="34.5" y1="31.3" x2="54.3" y2="33.6"/>
	<path class="st3" d="M34.6,30.7c1.6,0.7,3.2,0.8,4.9,1c1.6,0.2,3.3,0.4,4.9,0.5c2.9,0.2,7,0.8,9.9,0.7l-0.2,1.3
		c-1.6-0.5-3.3-0.6-4.9-0.9c-2.9-0.4-7-1-9.9-1.3c-1.7-0.2-3.3-0.4-5-0.1L34.6,30.7L34.6,30.7z"/>
</g>
<g>
	<line class="st3" x1="52.5" y1="30.4" x2="34.5" y2="34.6"/>
	<path class="st3" d="M52.6,30.9c-0.9-0.3-1.6,0-2.3,0.2c-2.2,0.5-4.6,1-6.8,1.5c-1.1,0.3-3.4,0.8-4.5,1.2c-1.5,0.4-3,0.7-4.4,1.6
		l-0.4-1.6c2.3,0.2,4.7-0.5,6.9-0.9c2.9-0.6,6.1-1.4,9-2.1c0.7-0.2,1.5-0.3,2.2-0.9C52.4,29.9,52.6,30.9,52.6,30.9L52.6,30.9z"/>
</g>
<ellipse class="st4" cx="45.2" cy="31.3" rx="2.6" ry="2.9"/>
<ellipse class="st4" cx="39.7" cy="33.6" rx="1" ry="1"/>
<ellipse class="st4" cx="42.3" cy="37" rx="1.6" ry="1.5"/>
<ellipse class="st3" cx="48.3" cy="35" rx="1.6" ry="1.5"/>
</svg>
